<svg width="208" height="141" viewBox="0 0 208 141" fill="none" xmlns="http://www.w3.org/2000/svg">
  <path
    d="M177.301 38.9111H37.1748V46.9589H37.2878L38.1309 81.8801H37.1748V89.9278H177.301C191.053 89.9278 202.248 78.7383 202.248 64.9816V63.8599C202.25 50.1007 191.056 38.9111 177.301 38.9111Z"
    fill="#9880B9" />
  <path
    d="M13.0344 86.711V42.1836H58.4099L92.9196 44.0556L104.997 52.6429L107.409 65.7873C107.409 65.7873 101.778 77.5892 101.507 78.4023C101.243 79.2003 90.2395 86.711 90.2395 86.711H60.4651H13.0344Z"
    fill="#F6E3CC" />
  <mask id="mask0_104_3422" style="mask-type:luminance" maskUnits="userSpaceOnUse" x="13" y="42" width="95" height="45">
    <path
      d="M13.0344 86.711V42.1836H58.4099L92.9196 44.0556L104.997 52.6429L107.409 65.7873C107.409 65.7873 101.778 77.5892 101.507 78.4023C101.243 79.2003 90.2395 86.711 90.2395 86.711H60.4651H13.0344Z"
      fill="white" />
  </mask>
  <g mask="url(#mask0_104_3422)">
    <path d="M133.7 50.2266H-14.6296V51.8351H133.7V50.2266Z" fill="#F5CA9D" />
    <path d="M133.7 56.668H-14.6296V58.2765H133.7V56.668Z" fill="#F5CA9D" />
    <path d="M133.7 63.1074H-14.6296V64.7159H133.7V63.1074Z" fill="#F5CA9D" />
    <path d="M133.7 69.5439H-14.6296V71.1575H133.7V69.5439Z" fill="#F5CA9D" />
    <path d="M133.7 75.9834H-14.6296V77.592H133.7V75.9834Z" fill="#F5CA9D" />
  </g>
  <path
    d="M13.0342 89.9278H85.7098C99.4665 89.9278 110.656 78.7383 110.656 64.9816V63.8598C110.656 50.1006 99.4665 38.9136 85.7098 38.9136H13.0342V46.9613H85.7098C95.0273 46.9613 102.608 54.5423 102.608 63.8598V64.9816C102.608 74.2991 95.0273 81.88 85.7098 81.88H13.0342V89.9278Z"
    fill="#722B76" />
  <path d="M185.833 54.4219H123.467V71.1648H185.833V54.4219Z" fill="#722B76" />
  <path d="M207.555 89.8301H5.29492V141H207.555V89.8301Z" fill="#FF9158" />
  <path d="M17.689 89.8301H13.6614V141H17.689V89.8301Z" fill="#F46527" />
  <path d="M27.4132 89.8301H23.3855V141H27.4132V89.8301Z" fill="#F46527" />
  <path d="M37.135 89.8301H33.1099V141H37.135V89.8301Z" fill="#F46527" />
  <path d="M179.743 89.8301H175.716V141H179.743V89.8301Z" fill="#F46527" />
  <path d="M189.465 89.8301H185.44V141H189.465V89.8301Z" fill="#F46527" />
  <path d="M199.189 89.8301H195.164V141H199.189V89.8301Z" fill="#F46527" />
  <path d="M153.763 110.821H56.106V123.501H153.763V110.821Z" fill="#F46527" />
  <path d="M197.173 0H38.324V38.9113H197.173V0Z" fill="#FACC5A" />
  <path d="M197.176 12.7378H38.324V26.1732H197.176V12.7378Z" fill="#FF9158" />
  <path d="M38.324 0L0 19.4531L38.324 38.9113V0Z" fill="#F6E3CC" />
  <path d="M0 19.4534L10.5471 14.0957L10.5522 24.816L0 19.4534Z" fill="#722B76" />
</svg>
